<mxfile host="Electron" modified="2024-07-08T08:52:48.237Z" agent="Mozilla/5.0 (Windows NT 10.0; Win64; x64) AppleWebKit/537.36 (KHTML, like Gecko) draw.io/24.6.4 Chrome/124.0.6367.207 Electron/30.0.6 Safari/537.36" etag="bBz0RFCYh-MdSNN4C03j" version="24.6.4" type="device">
  <diagram name="Page-1" id="LIJ5LoMYWKQha_Ndo42g">
    <mxGraphModel dx="864" dy="516" grid="1" gridSize="10" guides="1" tooltips="1" connect="1" arrows="1" fold="1" page="1" pageScale="1" pageWidth="850" pageHeight="1100" math="0" shadow="0">
      <root>
        <mxCell id="0" />
        <mxCell id="1" parent="0" />
        <mxCell id="lKyQOxz33mSrXqwDwZs--1" value="" style="rounded=0;whiteSpace=wrap;html=1;strokeColor=#407ba0;dashed=1;" vertex="1" parent="1">
          <mxGeometry x="30" y="200" width="800" height="500" as="geometry" />
        </mxCell>
        <mxCell id="lKyQOxz33mSrXqwDwZs--3" value="Region" style="points=[[0,0],[0.25,0],[0.5,0],[0.75,0],[1,0],[1,0.25],[1,0.5],[1,0.75],[1,1],[0.75,1],[0.5,1],[0.25,1],[0,1],[0,0.75],[0,0.5],[0,0.25]];outlineConnect=0;gradientColor=none;html=1;whiteSpace=wrap;fontSize=12;fontStyle=0;container=1;pointerEvents=0;collapsible=0;recursiveResize=0;shape=mxgraph.aws4.group;grIcon=mxgraph.aws4.group_region;strokeColor=#00A4A6;fillColor=none;verticalAlign=top;align=left;spacingLeft=30;fontColor=#147EBA;dashed=1;" vertex="1" parent="1">
          <mxGeometry x="60" y="225" width="740" height="455" as="geometry" />
        </mxCell>
        <mxCell id="lKyQOxz33mSrXqwDwZs--4" value="VPC" style="points=[[0,0],[0.25,0],[0.5,0],[0.75,0],[1,0],[1,0.25],[1,0.5],[1,0.75],[1,1],[0.75,1],[0.5,1],[0.25,1],[0,1],[0,0.75],[0,0.5],[0,0.25]];outlineConnect=0;gradientColor=none;html=1;whiteSpace=wrap;fontSize=12;fontStyle=0;container=1;pointerEvents=0;collapsible=0;recursiveResize=0;shape=mxgraph.aws4.group;grIcon=mxgraph.aws4.group_vpc2;strokeColor=#8C4FFF;fillColor=none;verticalAlign=top;align=left;spacingLeft=30;fontColor=#AAB7B8;dashed=0;" vertex="1" parent="1">
          <mxGeometry x="80" y="250" width="700" height="410" as="geometry" />
        </mxCell>
        <mxCell id="lKyQOxz33mSrXqwDwZs--9" value="IGW" style="sketch=0;outlineConnect=0;fontColor=#232F3E;gradientColor=none;fillColor=#8C4FFF;strokeColor=none;dashed=0;verticalLabelPosition=bottom;verticalAlign=top;align=center;html=1;fontSize=12;fontStyle=0;aspect=fixed;pointerEvents=1;shape=mxgraph.aws4.internet_gateway;" vertex="1" parent="lKyQOxz33mSrXqwDwZs--4">
          <mxGeometry x="-20" y="167" width="50" height="50" as="geometry" />
        </mxCell>
        <mxCell id="lKyQOxz33mSrXqwDwZs--36" value="Private subnet" style="points=[[0,0],[0.25,0],[0.5,0],[0.75,0],[1,0],[1,0.25],[1,0.5],[1,0.75],[1,1],[0.75,1],[0.5,1],[0.25,1],[0,1],[0,0.75],[0,0.5],[0,0.25]];outlineConnect=0;gradientColor=none;html=1;whiteSpace=wrap;fontSize=12;fontStyle=0;container=1;pointerEvents=0;collapsible=0;recursiveResize=0;shape=mxgraph.aws4.group;grIcon=mxgraph.aws4.group_security_group;grStroke=0;strokeColor=#00A4A6;fillColor=#E6F6F7;verticalAlign=top;align=left;spacingLeft=30;fontColor=#147EBA;dashed=0;" vertex="1" parent="lKyQOxz33mSrXqwDwZs--4">
          <mxGeometry x="510" y="20" width="180" height="370" as="geometry" />
        </mxCell>
        <mxCell id="lKyQOxz33mSrXqwDwZs--5" value="" style="outlineConnect=0;dashed=0;verticalLabelPosition=bottom;verticalAlign=top;align=center;html=1;shape=mxgraph.aws3.cloud_2;fillColor=#F58534;gradientColor=none;" vertex="1" parent="1">
          <mxGeometry x="30" y="200" width="40" height="30" as="geometry" />
        </mxCell>
        <mxCell id="lKyQOxz33mSrXqwDwZs--7" value="&lt;font style=&quot;font-size: 10px;&quot;&gt;Public subnet&lt;/font&gt;" style="points=[[0,0],[0.25,0],[0.5,0],[0.75,0],[1,0],[1,0.25],[1,0.5],[1,0.75],[1,1],[0.75,1],[0.5,1],[0.25,1],[0,1],[0,0.75],[0,0.5],[0,0.25]];outlineConnect=0;gradientColor=none;html=1;whiteSpace=wrap;fontSize=12;fontStyle=0;container=1;pointerEvents=0;collapsible=0;recursiveResize=0;shape=mxgraph.aws4.group;grIcon=mxgraph.aws4.group_security_group;grStroke=0;strokeColor=#7AA116;fillColor=#F2F6E8;verticalAlign=top;align=left;spacingLeft=30;fontColor=#248814;dashed=0;" vertex="1" parent="1">
          <mxGeometry x="180" y="270" width="390" height="180" as="geometry" />
        </mxCell>
        <mxCell id="lKyQOxz33mSrXqwDwZs--12" value="&lt;font style=&quot;font-size: 10px;&quot;&gt;Public subnet&lt;/font&gt;" style="points=[[0,0],[0.25,0],[0.5,0],[0.75,0],[1,0],[1,0.25],[1,0.5],[1,0.75],[1,1],[0.75,1],[0.5,1],[0.25,1],[0,1],[0,0.75],[0,0.5],[0,0.25]];outlineConnect=0;gradientColor=none;html=1;whiteSpace=wrap;fontSize=12;fontStyle=0;container=1;pointerEvents=0;collapsible=0;recursiveResize=0;shape=mxgraph.aws4.group;grIcon=mxgraph.aws4.group_security_group;grStroke=0;strokeColor=#7AA116;fillColor=#F2F6E8;verticalAlign=top;align=left;spacingLeft=30;fontColor=#248814;dashed=0;" vertex="1" parent="1">
          <mxGeometry x="180" y="460" width="390" height="180" as="geometry" />
        </mxCell>
        <mxCell id="lKyQOxz33mSrXqwDwZs--51" value="" style="edgeStyle=orthogonalEdgeStyle;rounded=0;orthogonalLoop=1;jettySize=auto;html=1;" edge="1" parent="1">
          <mxGeometry relative="1" as="geometry">
            <mxPoint x="210" y="440" as="sourcePoint" />
            <mxPoint x="420" y="368" as="targetPoint" />
            <Array as="points">
              <mxPoint x="260" y="440" />
              <mxPoint x="260" y="368" />
            </Array>
          </mxGeometry>
        </mxCell>
        <mxCell id="lKyQOxz33mSrXqwDwZs--13" value="ALB" style="outlineConnect=0;dashed=0;verticalLabelPosition=bottom;verticalAlign=top;align=center;html=1;shape=mxgraph.aws3.application_load_balancer;fillColor=#F58534;gradientColor=none;" vertex="1" parent="1">
          <mxGeometry x="150" y="414" width="60" height="56" as="geometry" />
        </mxCell>
        <mxCell id="lKyQOxz33mSrXqwDwZs--20" value="" style="rounded=0;whiteSpace=wrap;html=1;fillColor=none;strokeColor=#db1a1a;" vertex="1" parent="1">
          <mxGeometry x="390" y="300" width="160" height="310" as="geometry" />
        </mxCell>
        <mxCell id="lKyQOxz33mSrXqwDwZs--25" value="&lt;font style=&quot;font-size: 11px; background-color: initial;&quot;&gt;Fargate&amp;nbsp;&lt;/font&gt;&lt;span style=&quot;font-size: 11px; background-color: initial;&quot;&gt;Container&lt;/span&gt;" style="outlineConnect=0;dashed=0;verticalLabelPosition=bottom;verticalAlign=top;align=center;html=1;shape=mxgraph.aws3.ec2_compute_container;fillColor=#F58534;gradientColor=none;" vertex="1" parent="1">
          <mxGeometry x="440" y="390" width="60" height="30" as="geometry" />
        </mxCell>
        <mxCell id="lKyQOxz33mSrXqwDwZs--31" value="&lt;font style=&quot;font-size: 11px; background-color: initial;&quot;&gt;Fargate&amp;nbsp;&lt;/font&gt;&lt;span style=&quot;font-size: 11px; background-color: initial;&quot;&gt;Container&lt;/span&gt;" style="outlineConnect=0;dashed=0;verticalLabelPosition=bottom;verticalAlign=top;align=center;html=1;shape=mxgraph.aws3.ec2_compute_container;fillColor=#F58534;gradientColor=none;" vertex="1" parent="1">
          <mxGeometry x="440" y="320" width="60" height="30" as="geometry" />
        </mxCell>
        <mxCell id="lKyQOxz33mSrXqwDwZs--32" value="&lt;font style=&quot;font-size: 11px; background-color: initial;&quot;&gt;Fargate&amp;nbsp;&lt;/font&gt;&lt;span style=&quot;font-size: 11px; background-color: initial;&quot;&gt;Container&lt;/span&gt;" style="outlineConnect=0;dashed=0;verticalLabelPosition=bottom;verticalAlign=top;align=center;html=1;shape=mxgraph.aws3.ec2_compute_container;fillColor=#F58534;gradientColor=none;" vertex="1" parent="1">
          <mxGeometry x="440" y="480" width="60" height="30" as="geometry" />
        </mxCell>
        <mxCell id="lKyQOxz33mSrXqwDwZs--33" value="&lt;font style=&quot;font-size: 11px; background-color: initial;&quot;&gt;Fargate&amp;nbsp;&lt;/font&gt;&lt;span style=&quot;font-size: 11px; background-color: initial;&quot;&gt;Container&lt;/span&gt;" style="outlineConnect=0;dashed=0;verticalLabelPosition=bottom;verticalAlign=top;align=center;html=1;shape=mxgraph.aws3.ec2_compute_container;fillColor=#F58534;gradientColor=none;" vertex="1" parent="1">
          <mxGeometry x="440" y="550" width="60" height="30" as="geometry" />
        </mxCell>
        <mxCell id="lKyQOxz33mSrXqwDwZs--34" value="" style="rounded=0;whiteSpace=wrap;html=1;fillColor=none;dashed=1;" vertex="1" parent="1">
          <mxGeometry x="420" y="310" width="110" height="130" as="geometry" />
        </mxCell>
        <mxCell id="lKyQOxz33mSrXqwDwZs--35" value="" style="rounded=0;whiteSpace=wrap;html=1;fillColor=none;dashed=1;" vertex="1" parent="1">
          <mxGeometry x="420" y="470" width="110" height="130" as="geometry" />
        </mxCell>
        <mxCell id="lKyQOxz33mSrXqwDwZs--38" value="RDS&amp;nbsp;" style="outlineConnect=0;dashed=0;verticalLabelPosition=bottom;verticalAlign=top;align=center;html=1;shape=mxgraph.aws3.rds_db_instance;fillColor=#2E73B8;gradientColor=none;" vertex="1" parent="1">
          <mxGeometry x="660" y="422" width="49.5" height="66" as="geometry" />
        </mxCell>
        <mxCell id="lKyQOxz33mSrXqwDwZs--39" value="&lt;font style=&quot;font-size: 10px;&quot;&gt;Target Group&lt;/font&gt;" style="text;html=1;align=center;verticalAlign=middle;whiteSpace=wrap;rounded=0;" vertex="1" parent="1">
          <mxGeometry x="390" y="300" width="60" height="30" as="geometry" />
        </mxCell>
        <mxCell id="lKyQOxz33mSrXqwDwZs--40" value="&lt;font style=&quot;font-size: 10px;&quot;&gt;Target Group&lt;/font&gt;" style="text;html=1;align=center;verticalAlign=middle;whiteSpace=wrap;rounded=0;" vertex="1" parent="1">
          <mxGeometry x="380" y="560" width="60" height="30" as="geometry" />
        </mxCell>
        <mxCell id="lKyQOxz33mSrXqwDwZs--42" value="" style="sketch=0;points=[[0,0,0],[0.25,0,0],[0.5,0,0],[0.75,0,0],[1,0,0],[0,1,0],[0.25,1,0],[0.5,1,0],[0.75,1,0],[1,1,0],[0,0.25,0],[0,0.5,0],[0,0.75,0],[1,0.25,0],[1,0.5,0],[1,0.75,0]];outlineConnect=0;fontColor=#232F3E;fillColor=#ED7100;strokeColor=#ffffff;dashed=0;verticalLabelPosition=bottom;verticalAlign=top;align=center;html=1;fontSize=12;fontStyle=0;aspect=fixed;shape=mxgraph.aws4.resourceIcon;resIcon=mxgraph.aws4.ecs;" vertex="1" parent="1">
          <mxGeometry x="320" y="280" width="30" height="30" as="geometry" />
        </mxCell>
        <mxCell id="lKyQOxz33mSrXqwDwZs--50" value="" style="edgeStyle=orthogonalEdgeStyle;rounded=0;orthogonalLoop=1;jettySize=auto;html=1;" edge="1" parent="1" source="lKyQOxz33mSrXqwDwZs--48" target="lKyQOxz33mSrXqwDwZs--38">
          <mxGeometry relative="1" as="geometry" />
        </mxCell>
        <mxCell id="lKyQOxz33mSrXqwDwZs--48" value="" style="rounded=0;whiteSpace=wrap;html=1;fillColor=none;dashed=1;dashPattern=12 12;strokeColor=#407ba0;" vertex="1" parent="1">
          <mxGeometry x="320" y="280" width="250" height="350" as="geometry" />
        </mxCell>
        <mxCell id="lKyQOxz33mSrXqwDwZs--49" value="&lt;font style=&quot;font-size: 11px;&quot;&gt;ECS&lt;/font&gt;&lt;div style=&quot;font-size: 11px;&quot;&gt;&lt;font style=&quot;font-size: 11px;&quot;&gt;Cluster&lt;/font&gt;&lt;/div&gt;" style="text;html=1;align=center;verticalAlign=middle;whiteSpace=wrap;rounded=0;" vertex="1" parent="1">
          <mxGeometry x="305" y="310" width="60" height="30" as="geometry" />
        </mxCell>
        <mxCell id="lKyQOxz33mSrXqwDwZs--52" style="edgeStyle=orthogonalEdgeStyle;rounded=0;orthogonalLoop=1;jettySize=auto;html=1;" edge="1" parent="1" source="lKyQOxz33mSrXqwDwZs--13">
          <mxGeometry relative="1" as="geometry">
            <mxPoint x="420" y="536" as="targetPoint" />
            <Array as="points">
              <mxPoint x="265" y="442" />
              <mxPoint x="265" y="536" />
            </Array>
          </mxGeometry>
        </mxCell>
        <mxCell id="lKyQOxz33mSrXqwDwZs--53" value="" style="edgeStyle=orthogonalEdgeStyle;rounded=0;orthogonalLoop=1;jettySize=auto;html=1;" edge="1" parent="1" source="lKyQOxz33mSrXqwDwZs--9" target="lKyQOxz33mSrXqwDwZs--13">
          <mxGeometry relative="1" as="geometry" />
        </mxCell>
      </root>
    </mxGraphModel>
  </diagram>
</mxfile>
